# xmcd
#
# Track frame offsets: 
#        150
#        14123
#        28251
#        42267
#        56199
#        69298
#        83412
#        97775
#        111849
#        125626
#        138880
#        150901
#        165308
#        179194
#        192870
#
# Disc length: 2770 seconds
#
# Revision: 0
# Processed by: cddbd v1.5.2PL0 Copyright (c) Steve Scherf et al.
# Submitted via: ExactAudioCopy v0.99pb4
#
DISCID=c20ad00f
DTITLE=Leadbelly - Alabama Bound
DYEAR=1920
DGENRE=Blues
TTITLE0=Pick a Bale O'Cotton
TTITLE1=African boogie
TTITLE2=Midnight Special
TTITLE3=Alabama Bound
TTITLE4=Good Morning Blues
TTITLE5=I ain't goin'
TTITLE6=Alberta
TTITLE7=You Can't Loose - Me a Cholly
TTITLE8=Lament blues
TTITLE9=Moses Blues
TTITLE10=Jesus, the Mighty Good Lord
TTITLE11=Easy Rider
TTITLE12=Easy Rider
TTITLE13=Roberta
TTITLE14=Last go round
EXTD=
EXTT0=
EXTT1=
EXTT2=
EXTT3=
EXTT4=
EXTT5=
EXTT6=
EXTT7=
EXTT8=
EXTT9=
EXTT10=
EXTT11=
EXTT12=
EXTT13=
EXTT14=
PLAYORDER=
